<svg width="41" height="41" viewBox="0 0 41 41" fill="none" xmlns="http://www.w3.org/2000/svg">
<rect x="6.83333" y="5.125" width="27.3333" height="30.75" rx="2" fill="white"/>
<path d="M14.5208 11.1042L26.4792 11.1042" stroke="#222222" stroke-linecap="round"/>
<path d="M14.5208 16.2292L21.3542 16.2292" stroke="#222222" stroke-linecap="round"/>
<path d="M14.5208 21.3542L24.7708 21.3542" stroke="black" stroke-linecap="round"/>
<path d="M6.83333 32.4583C6.83333 31.1331 6.83333 30.4705 7.13492 29.9855C7.29692 29.725 7.51668 29.5053 7.77719 29.3433C8.2622 29.0417 8.9248 29.0417 10.25 29.0417H30.1667C32.0523 29.0417 32.9951 29.0417 33.5809 28.4559C34.1667 27.8701 34.1667 26.9273 34.1667 25.0417V23.9167V31.875C34.1667 33.7606 34.1667 34.7034 33.5809 35.2892C32.9951 35.875 32.0523 35.875 30.1667 35.875H10.25C8.9248 35.875 8.2622 35.875 7.77719 35.5734C7.51668 35.4114 7.29692 35.1916 7.13492 34.9311C6.83333 34.4461 6.83333 33.7835 6.83333 32.4583Z" fill="#47A992"/>
</svg>
