<svg width="44" height="41" viewBox="0 0 44 41" fill="none" xmlns="http://www.w3.org/2000/svg">
<path d="M8.9797 22.6523C8.9797 21.6432 8.9797 21.1387 9.20136 20.7079C9.42303 20.2772 9.8336 19.9839 10.6547 19.3974L19.907 12.7887C20.4683 12.3877 20.749 12.1872 21.0694 12.1872C21.3899 12.1872 21.6706 12.3877 22.2319 12.7887L31.4841 19.3974C32.3053 19.9839 32.7159 20.2772 32.9375 20.7079C33.1592 21.1387 33.1592 21.6432 33.1592 22.6523V34.1378C33.1592 35.0806 33.1592 35.552 32.8663 35.8449C32.5734 36.1378 32.102 36.1378 31.1592 36.1378H10.9797C10.0369 36.1378 9.56548 36.1378 9.27259 35.8449C8.9797 35.552 8.9797 35.0806 8.9797 34.1378V22.6523Z" stroke="black"/>
<path d="M5.38782 21.6132C5.38782 21.8732 5.38782 22.0031 5.4703 22.0447C5.55278 22.0863 5.65727 22.009 5.86624 21.8544L20.3618 11.13C20.935 10.706 21.2216 10.4939 21.5513 10.4939C21.881 10.4939 22.1676 10.706 22.7408 11.13L37.2363 21.8544C37.4453 22.009 37.5498 22.0863 37.6323 22.0447C37.7147 22.0031 37.7147 21.8732 37.7147 21.6132V19.7998C37.7147 19.3053 37.7147 19.058 37.6077 18.8456C37.5007 18.6333 37.3019 18.4862 36.9043 18.192L22.7408 7.71338C22.1676 7.2893 21.881 7.07726 21.5513 7.07726C21.2216 7.07726 20.935 7.2893 20.3618 7.71338L6.1983 18.192C5.8007 18.4862 5.6019 18.6333 5.49486 18.8456C5.38782 19.058 5.38782 19.3053 5.38782 19.7998V21.6132Z" fill="#222222"/>
<path d="M24.0411 25.625H19.0614C17.9569 25.625 17.0614 26.5204 17.0614 27.625V35.725C17.0614 35.8078 17.1286 35.875 17.2114 35.875H25.8911C25.974 35.875 26.0411 35.8078 26.0411 35.725V27.625C26.0411 26.5204 25.1457 25.625 24.0411 25.625Z" fill="#222222"/>
<rect x="28.735" y="8.54167" width="3.59188" height="6.83333" rx="0.5" fill="#222222"/>
</svg>
